<svg xmlns="http://www.w3.org/2000/svg" xmlns:xlink="http://www.w3.org/1999/xlink" width="1024" zoomAndPan="magnify" viewBox="0 0 768 767.999994" height="1024" preserveAspectRatio="xMidYMid meet" version="1.0"><rect x="-76.8" width="921.6" fill="#ffffff" y="-76.799999" height="921.599993" fill-opacity="1"/><rect x="-76.8" width="921.6" fill="#ffffff" y="-76.799999" height="921.599993" fill-opacity="1"/><path fill="#d3a971" d="M 383.957031 13.808594 C 588.378906 13.808594 754.105469 179.539062 754.105469 383.960938 C 754.105469 588.378906 588.378906 754.109375 383.957031 754.109375 C 179.53125 754.109375 13.808594 588.378906 13.808594 383.960938 C 13.808594 179.539062 179.53125 13.808594 383.957031 13.808594 Z M 383.957031 -0.0234375 C 171.886719 -0.0234375 -0.0234375 171.886719 -0.0234375 383.960938 C -0.0234375 596.03125 171.886719 767.941406 383.957031 767.941406 C 596.03125 767.941406 767.941406 596.03125 767.941406 383.960938 C 767.941406 171.886719 596.03125 -0.0234375 383.957031 -0.0234375 Z M 568 213.125 L 568 373.714844 L 522.738281 344.484375 L 437.15625 397.625 L 422.757812 406.578125 L 414.335938 411.800781 L 414.335938 165.558594 L 317.078125 225.828125 L 317.078125 331.773438 L 294.253906 316.324219 L 294.253906 213.125 L 437.15625 124.5625 Z M 64.371094 383.960938 C 64.371094 207.453125 207.453125 64.375 383.960938 64.375 C 560.464844 64.375 703.542969 207.453125 703.542969 383.960938 C 703.542969 465.515625 672.945312 539.90625 622.664062 596.375 L 622.664062 426.179688 L 523.097656 358.78125 L 414.335938 426.179688 L 414.335938 702.070312 C 404.332031 703.011719 394.210938 703.542969 383.960938 703.542969 C 373.707031 703.542969 363.582031 703.011719 353.574219 702.070312 L 353.574219 371.949219 L 254.007812 304.550781 L 145.253906 371.949219 L 145.253906 596.375 C 94.972656 539.90625 64.371094 465.515625 64.371094 383.960938 Z M 162.621094 381.621094 L 236.640625 335.753906 L 236.640625 667.542969 C 209.433594 653.375 184.539062 635.425781 162.621094 614.367188 Z M 431.707031 435.851562 L 505.726562 389.984375 L 505.726562 679.46875 C 482.316406 689.121094 457.519531 696.113281 431.707031 699.980469 Z M 32.339844 383.960938 C 32.339844 578.152344 189.761719 735.582031 383.960938 735.582031 C 578.152344 735.582031 735.582031 578.152344 735.582031 383.960938 C 735.582031 189.765625 578.152344 32.339844 383.960938 32.339844 C 189.761719 32.339844 32.339844 189.765625 32.339844 383.960938 " fill-opacity="1" fill-rule="nonzero"/></svg>