<svg xmlns="http://www.w3.org/2000/svg" xmlns:xlink="http://www.w3.org/1999/xlink" width="1024" zoomAndPan="magnify" viewBox="0 0 768 767.999994" height="1024" preserveAspectRatio="xMidYMid meet" version="1.0"><rect x="-76.8" width="921.6" fill="#ffffff" y="-76.799999" height="921.599993" fill-opacity="1"/><rect x="-76.8" width="921.6" fill="#ffffff" y="-76.799999" height="921.599993" fill-opacity="1"/><path fill="#00c4ff" d="M 383.90625 -0.0976562 C 383.90625 -0.0976562 647.476562 353.007812 647.476562 504.339844 C 647.476562 649.808594 529.375 767.910156 383.90625 767.910156 C 238.4375 767.910156 120.335938 649.808594 120.335938 504.339844 C 120.335938 353.007812 383.90625 -0.0976562 383.90625 -0.0976562 Z M 383.90625 -0.0976562 " fill-opacity="1" fill-rule="evenodd"/><path fill="#ffffff" d="M 262.289062 496.480469 C 262.289062 496.480469 307.472656 549.335938 307.472656 571.988281 C 307.472656 596.925781 287.226562 617.171875 262.289062 617.171875 C 237.355469 617.171875 217.109375 596.925781 217.109375 571.988281 C 217.109375 549.335938 262.289062 496.480469 262.289062 496.480469 Z M 262.289062 496.480469 " fill-opacity="1" fill-rule="evenodd"/></svg>