<svg xmlns="http://www.w3.org/2000/svg" xmlns:xlink="http://www.w3.org/1999/xlink" width="1024" zoomAndPan="magnify" viewBox="0 0 768 767.999994" height="1024" preserveAspectRatio="xMidYMid meet" version="1.0"><defs><clipPath id="490ed42288"><path d="M 16.109375 76.800781 L 751.8125 76.800781 L 751.8125 691.050781 L 16.109375 691.050781 Z M 16.109375 76.800781 " clip-rule="nonzero"/></clipPath></defs><rect x="-76.8" width="921.6" fill="#ffffff" y="-76.799999" height="921.599993" fill-opacity="1"/><rect x="-76.8" width="921.6" fill="#ffffff" y="-76.799999" height="921.599993" fill-opacity="1"/><g clip-path="url(#490ed42288)"><path fill="#221f1f" d="M 707.050781 189.027344 C 687.03125 173.011719 629.640625 142.324219 616.960938 128.976562 C 604.289062 115.636719 596.945312 112.296875 596.945312 112.296875 C 596.945312 112.296875 553.570312 104.960938 547.566406 112.296875 C 541.558594 119.636719 530.878906 152.996094 532.878906 155.664062 C 534.886719 158.332031 554.289062 177.019531 562.605469 173.679688 C 570.917969 170.34375 576.925781 166.339844 580.261719 163.671875 C 583.597656 161.003906 587.601562 170.34375 592.941406 166.339844 C 598.277344 162.335938 598.691406 155.382812 601.617188 158.332031 C 601.617188 158.332031 622.300781 177.679688 624.300781 195.695312 C 626.308594 213.714844 629.640625 241.730469 651 253.746094 C 651 253.746094 574.921875 225.722656 552.898438 263.085938 C 530.878906 300.449219 543.558594 305.121094 516.199219 312.457031 C 516.199219 312.457031 538.886719 294.441406 538.886719 275.761719 C 538.886719 275.761719 476.160156 257.746094 455.476562 281.765625 C 442.128906 303.121094 439.457031 318.460938 427.445312 326.46875 C 427.445312 326.46875 439.457031 302.449219 438.125 291.773438 C 437.226562 284.605469 432.769531 271.089844 431.730469 254.714844 C 424.4375 263.894531 417.21875 271.480469 416.109375 273.136719 C 414.0625 276.214844 401.964844 278.316406 399.707031 278.34375 C 399.457031 278.398438 399.300781 278.410156 399.300781 278.34375 C 399.300781 278.34375 399.464844 278.34375 399.707031 278.34375 C 401.742188 277.90625 411.347656 273.890625 414.074219 272.027344 C 419.265625 268.484375 437.507812 233.980469 437.660156 233.695312 C 441.679688 225.375 444.996094 218.347656 446.164062 215.433594 C 449.988281 205.863281 455.734375 202.996094 457.648438 193.425781 C 459.558594 183.859375 459.484375 160.769531 454.695312 164.59375 C 454.695312 164.59375 449.121094 169.765625 447.132812 174.945312 C 447.132812 174.945312 447.320312 172.03125 448.585938 168.40625 C 449.589844 165.527344 450.105469 162.503906 449.996094 159.460938 C 449.988281 159.167969 449.988281 158.984375 449.988281 158.984375 C 449.988281 158.984375 454.277344 134.667969 454.019531 125.945312 C 453.679688 114.375 434.277344 73.25 383.960938 77.050781 C 333.65625 73.25 314.25 114.375 313.90625 125.945312 C 313.644531 134.667969 317.933594 158.984375 317.933594 158.984375 C 317.933594 158.984375 317.941406 159.167969 317.929688 159.460938 C 317.824219 162.503906 318.335938 165.527344 319.335938 168.40625 C 320.605469 172.03125 320.800781 174.945312 320.800781 174.945312 C 318.804688 169.765625 313.230469 164.59375 313.230469 164.59375 C 308.449219 160.769531 308.371094 183.859375 310.285156 193.425781 C 312.195312 202.996094 317.933594 205.863281 321.765625 215.433594 C 322.929688 218.347656 326.242188 225.375 330.261719 233.695312 C 330.414062 233.980469 348.65625 268.484375 353.855469 272.027344 C 356.585938 273.890625 366.191406 277.90625 368.226562 278.34375 C 368.460938 278.34375 368.625 278.34375 368.625 278.34375 C 368.625 278.410156 368.464844 278.398438 368.226562 278.34375 C 365.96875 278.316406 357.171875 276.796875 352.460938 274.203125 C 350.710938 273.242188 343.488281 263.894531 336.199219 254.714844 C 335.15625 271.089844 330.699219 284.605469 329.804688 291.773438 C 328.46875 302.449219 340.476562 326.46875 340.476562 326.46875 C 328.46875 318.460938 325.796875 303.121094 312.449219 281.765625 C 291.765625 257.746094 229.035156 275.761719 229.035156 275.761719 C 229.035156 294.441406 251.726562 312.457031 251.726562 312.457031 C 224.367188 305.121094 237.046875 300.449219 215.023438 263.085938 C 193.003906 225.722656 116.933594 253.746094 116.933594 253.746094 C 138.285156 241.730469 141.621094 213.714844 143.625 195.695312 C 145.625 177.679688 166.3125 158.332031 166.3125 158.332031 C 169.242188 155.382812 169.644531 162.335938 174.984375 166.339844 C 180.324219 170.34375 184.328125 161.003906 187.664062 163.671875 C 191.003906 166.339844 197.007812 170.34375 205.320312 173.679688 C 213.632812 177.019531 233.042969 158.332031 235.046875 155.664062 C 237.046875 152.996094 226.367188 119.636719 220.363281 112.296875 C 214.355469 104.960938 170.984375 112.296875 170.984375 112.296875 C 170.984375 112.296875 163.644531 115.636719 150.964844 128.976562 C 138.285156 142.324219 80.894531 173.011719 60.875 189.027344 C 40.855469 205.035156 7.492188 275.09375 18.171875 278.578125 C 28.84375 282.058594 28.179688 280.433594 68.214844 329.136719 C 108.253906 377.839844 171.652344 372.503906 195.675781 375.839844 C 219.695312 379.179688 231.707031 405.867188 231.707031 405.867188 C 217.027344 389.851562 192.335938 391.1875 192.335938 391.1875 C 205.683594 499.273438 270.414062 549.3125 270.414062 549.3125 L 275.75 507.949219 C 287.097656 521.957031 292.433594 563.324219 292.433594 563.324219 L 277.753906 527.960938 L 278.417969 619.371094 L 383.960938 691.066406 L 489.507812 619.371094 L 490.175781 527.960938 L 475.496094 563.324219 C 475.496094 563.324219 480.835938 521.957031 492.175781 507.949219 L 497.515625 549.3125 C 497.515625 549.3125 562.246094 499.273438 575.589844 391.1875 C 575.589844 391.1875 550.898438 389.851562 536.21875 405.867188 C 536.21875 405.867188 548.230469 379.179688 572.25 375.839844 C 596.277344 372.503906 659.671875 377.839844 699.710938 329.136719 C 739.75 280.433594 739.082031 282.058594 749.761719 278.578125 C 760.433594 275.09375 727.070312 205.035156 707.050781 189.027344 " fill-opacity="1" fill-rule="nonzero"/></g></svg>