<svg xmlns="http://www.w3.org/2000/svg" xmlns:xlink="http://www.w3.org/1999/xlink" width="1024" zoomAndPan="magnify" viewBox="0 0 768 767.999994" height="1024" preserveAspectRatio="xMidYMid meet" version="1.0"><defs><clipPath id="bac5968280"><path d="M 221 29.761719 L 576 29.761719 L 576 738.511719 L 221 738.511719 Z M 221 29.761719 " clip-rule="nonzero"/></clipPath></defs><rect x="-76.8" width="921.6" fill="#ffffff" y="-76.799999" height="921.599993" fill-opacity="1"/><rect x="-76.8" width="921.6" fill="#ffffff" y="-76.799999" height="921.599993" fill-opacity="1"/><path fill="#f49516" d="M 387.148438 721.554688 C 458.175781 721.554688 526.105469 699.691406 583.59375 658.34375 C 639.839844 617.867188 681.742188 562.09375 704.746094 497.046875 C 708.617188 486.113281 702.894531 474.117188 691.964844 470.257812 C 681.039062 466.386719 669.042969 472.113281 665.1875 483.046875 C 623.613281 600.601562 511.878906 679.585938 387.148438 679.585938 C 378.914062 679.585938 370.757812 679.222656 362.703125 678.566406 L 334.417969 717.46875 C 351.695312 720.160156 369.316406 721.554688 387.148438 721.554688 Z M 387.148438 721.554688 " fill-opacity="1" fill-rule="nonzero"/><path fill="#203a6c" d="M 98.199219 443.40625 C 119.398438 434.507812 134.296875 413.546875 134.296875 389.09375 C 134.296875 387.515625 134.214844 385.941406 134.082031 384.398438 L 140.070312 384.398438 C 145.78125 384.398438 150.425781 379.769531 150.425781 374.058594 C 150.425781 368.34375 145.796875 363.714844 140.070312 363.714844 L 115.328125 363.714844 L 115.328125 312.339844 C 115.328125 306.695312 110.753906 302.132812 105.125 302.132812 C 99.480469 302.132812 94.917969 306.710938 94.917969 312.339844 L 94.917969 363.714844 L 72.933594 363.714844 C 72.410156 363.683594 71.882812 363.632812 71.339844 363.632812 C 70.800781 363.632812 70.273438 363.683594 69.75 363.714844 L 56 363.714844 L 56 312.339844 C 56 306.695312 51.421875 302.132812 45.796875 302.132812 C 40.152344 302.132812 35.589844 306.710938 35.589844 312.339844 L 35.589844 363.714844 L 10.816406 363.714844 C 5.105469 363.714844 0.480469 368.34375 0.480469 374.058594 C 0.480469 379.769531 5.105469 384.398438 10.816406 384.398438 L 16.804688 384.398438 C 16.671875 385.941406 16.589844 387.515625 16.589844 389.09375 C 16.589844 414.648438 32.882812 436.398438 55.640625 444.539062 C 67.632812 511.71875 99.726562 573.582031 148.996094 622.859375 C 185.816406 659.691406 229.65625 686.921875 277.5 703.351562 L 289.789062 663.023438 C 192.886719 629.011719 118.972656 545.761719 98.199219 443.40625 Z M 98.199219 443.40625 " fill-opacity="1" fill-rule="nonzero"/><path fill="#203a6c" d="M 718.398438 323.535156 C 697.394531 208.636719 618.722656 115.488281 514.882812 72.847656 L 502.527344 113.191406 C 590.074219 150.484375 656.574219 229.007812 676.101562 325.816406 C 651.339844 335.617188 633.816406 359.742188 633.816406 387.992188 C 633.816406 414.417969 649.140625 437.25 671.375 448.117188 L 671.375 398.136719 L 700.644531 372.972656 L 729.914062 398.136719 L 729.914062 448.117188 C 752.148438 437.265625 767.472656 414.417969 767.472656 387.992188 C 767.488281 357.214844 746.699219 331.316406 718.398438 323.535156 Z M 718.398438 323.535156 " fill-opacity="1" fill-rule="nonzero"/><path fill="#f49516" d="M 387.148438 47.683594 C 254.136719 47.683594 133.28125 126.273438 79.234375 247.882812 C 74.523438 258.46875 79.300781 270.878906 89.882812 275.589844 C 100.464844 280.300781 112.867188 275.523438 117.578125 264.9375 C 164.894531 158.460938 270.707031 89.671875 387.148438 89.671875 C 402.558594 89.671875 417.699219 90.867188 432.515625 93.167969 L 458.585938 55.347656 C 435.503906 50.328125 411.597656 47.683594 387.148438 47.683594 Z M 387.148438 47.683594 " fill-opacity="1" fill-rule="nonzero"/><g clip-path="url(#bac5968280)"><path fill="#f49516" d="M 504.070312 29.761719 L 221.566406 439.628906 L 381.785156 439.628906 L 290.804688 738.429688 L 575.621094 346.628906 L 406.460938 348.582031 Z M 504.070312 29.761719 " fill-opacity="1" fill-rule="nonzero"/></g></svg>