<svg xmlns="http://www.w3.org/2000/svg" xmlns:xlink="http://www.w3.org/1999/xlink" width="1024" zoomAndPan="magnify" viewBox="0 0 768 767.999994" height="1024" preserveAspectRatio="xMidYMid meet" version="1.0"><defs><clipPath id="a809c44742"><path d="M 4 0 L 763.707031 0 L 763.707031 759.75 L 4 759.75 Z M 4 0 " clip-rule="nonzero"/></clipPath></defs><rect x="-76.8" width="921.6" fill="#ffffff" y="-76.799999" height="921.599993" fill-opacity="1"/><rect x="-76.8" width="921.6" fill="#ffffff" y="-76.799999" height="921.599993" fill-opacity="1"/><g clip-path="url(#a809c44742)"><path fill="#10c03e" d="M 763.765625 379.929688 C 763.765625 386.148438 763.613281 392.359375 763.308594 398.570312 C 763 404.777344 762.542969 410.976562 761.933594 417.164062 C 761.324219 423.351562 760.566406 429.519531 759.652344 435.667969 C 758.742188 441.820312 757.679688 447.941406 756.464844 454.039062 C 755.253906 460.136719 753.890625 466.203125 752.378906 472.230469 C 750.871094 478.261719 749.210938 484.253906 747.40625 490.203125 C 745.601562 496.152344 743.652344 502.050781 741.558594 507.90625 C 739.464844 513.757812 737.226562 519.558594 734.847656 525.300781 C 732.46875 531.046875 729.949219 536.726562 727.292969 542.347656 C 724.632812 547.96875 721.839844 553.519531 718.910156 559 C 715.980469 564.484375 712.914062 569.890625 709.71875 575.226562 C 706.523438 580.558594 703.199219 585.808594 699.742188 590.976562 C 696.289062 596.148438 692.710938 601.226562 689.007812 606.222656 C 685.304688 611.214844 681.480469 616.113281 677.535156 620.921875 C 673.59375 625.726562 669.53125 630.433594 665.359375 635.039062 C 661.183594 639.644531 656.898438 644.144531 652.5 648.542969 C 648.105469 652.9375 643.605469 657.222656 638.996094 661.398438 C 634.390625 665.574219 629.683594 669.632812 624.878906 673.578125 C 620.074219 677.523438 615.171875 681.34375 610.179688 685.050781 C 605.1875 688.753906 600.105469 692.332031 594.9375 695.785156 C 589.765625 699.238281 584.515625 702.5625 579.183594 705.761719 C 573.851562 708.957031 568.445312 712.019531 562.960938 714.949219 C 557.476562 717.882812 551.925781 720.675781 546.304688 723.332031 C 540.6875 725.992188 535.003906 728.511719 529.261719 730.890625 C 523.515625 733.269531 517.71875 735.503906 511.863281 737.597656 C 506.011719 739.695312 500.109375 741.644531 494.160156 743.449219 C 488.210938 745.253906 482.222656 746.910156 476.191406 748.421875 C 470.160156 749.933594 464.097656 751.292969 458 752.507812 C 451.902344 753.71875 445.777344 754.78125 439.628906 755.695312 C 433.476562 756.605469 427.308594 757.367188 421.121094 757.976562 C 414.9375 758.585938 408.738281 759.042969 402.527344 759.347656 C 396.320312 759.652344 390.105469 759.804688 383.886719 759.804688 C 377.671875 759.804688 371.457031 759.652344 365.25 759.347656 C 359.039062 759.042969 352.839844 758.585938 346.652344 757.976562 C 340.46875 757.367188 334.296875 756.605469 328.148438 755.695312 C 322 754.78125 315.875 753.71875 309.777344 752.507812 C 303.679688 751.292969 297.617188 749.933594 291.585938 748.421875 C 285.554688 746.910156 279.566406 745.253906 273.617188 743.449219 C 267.667969 741.644531 261.765625 739.695312 255.910156 737.597656 C 250.058594 735.503906 244.257812 733.269531 238.515625 730.890625 C 232.773438 728.511719 227.089844 725.992188 221.46875 723.332031 C 215.851562 720.675781 210.300781 717.882812 204.816406 714.949219 C 199.332031 712.019531 193.925781 708.957031 188.59375 705.761719 C 183.261719 702.5625 178.007812 699.238281 172.839844 695.785156 C 167.671875 692.332031 162.589844 688.753906 157.597656 685.050781 C 152.601562 681.34375 147.703125 677.523438 142.898438 673.578125 C 138.089844 669.632812 133.386719 665.574219 128.777344 661.398438 C 124.171875 657.222656 119.671875 652.9375 115.273438 648.542969 C 110.878906 644.144531 106.59375 639.644531 102.417969 635.039062 C 98.242188 630.433594 94.183594 625.726562 90.238281 620.921875 C 86.296875 616.113281 82.472656 611.214844 78.769531 606.222656 C 75.066406 601.226562 71.488281 596.148438 68.03125 590.976562 C 64.578125 585.808594 61.253906 580.558594 58.058594 575.226562 C 54.863281 569.890625 51.796875 564.484375 48.867188 559.003906 C 45.9375 553.519531 43.140625 547.96875 40.484375 542.347656 C 37.828125 536.726562 35.308594 531.046875 32.929688 525.300781 C 30.550781 519.558594 28.3125 513.757812 26.21875 507.90625 C 24.125 502.050781 22.175781 496.152344 20.371094 490.203125 C 18.566406 484.253906 16.90625 478.261719 15.398438 472.230469 C 13.886719 466.203125 12.523438 460.136719 11.3125 454.039062 C 10.097656 447.941406 9.035156 441.820312 8.125 435.667969 C 7.210938 429.519531 6.449219 423.351562 5.839844 417.164062 C 5.230469 410.976562 4.773438 404.777344 4.46875 398.570312 C 4.164062 392.359375 4.011719 386.148438 4.011719 379.929688 C 4.011719 373.710938 4.164062 367.5 4.46875 361.289062 C 4.773438 355.082031 5.230469 348.882812 5.839844 342.695312 C 6.449219 336.507812 7.210938 330.339844 8.125 324.191406 C 9.035156 318.039062 10.097656 311.917969 11.3125 305.820312 C 12.523438 299.722656 13.886719 293.65625 15.398438 287.628906 C 16.90625 281.597656 18.566406 275.605469 20.371094 269.65625 C 22.175781 263.707031 24.125 257.808594 26.21875 251.953125 C 28.3125 246.097656 30.550781 240.300781 32.929688 234.558594 C 35.308594 228.8125 37.828125 223.132812 40.484375 217.511719 C 43.140625 211.890625 45.9375 206.339844 48.867188 200.855469 C 51.796875 195.375 54.863281 189.964844 58.058594 184.632812 C 61.253906 179.300781 64.578125 174.050781 68.03125 168.882812 C 71.488281 163.710938 75.066406 158.632812 78.769531 153.636719 C 82.472656 148.644531 86.296875 143.746094 90.238281 138.9375 C 94.183594 134.132812 98.242188 129.425781 102.417969 124.820312 C 106.59375 120.214844 110.878906 115.710938 115.273438 111.316406 C 119.671875 106.921875 124.171875 102.636719 128.777344 98.460938 C 133.386719 94.285156 138.089844 90.226562 142.898438 86.28125 C 147.703125 82.335938 152.601562 78.511719 157.597656 74.808594 C 162.589844 71.105469 167.671875 67.527344 172.839844 64.074219 C 178.007812 60.621094 183.261719 57.296875 188.59375 54.097656 C 193.925781 50.902344 199.332031 47.839844 204.816406 44.910156 C 210.300781 41.976562 215.851562 39.183594 221.46875 36.527344 C 227.089844 33.867188 232.773438 31.347656 238.515625 28.96875 C 244.257812 26.589844 250.058594 24.355469 255.910156 22.257812 C 261.765625 20.164062 267.667969 18.214844 273.617188 16.410156 C 279.566406 14.605469 285.554688 12.949219 291.585938 11.4375 C 297.617188 9.925781 303.679688 8.566406 309.777344 7.351562 C 315.875 6.140625 322 5.078125 328.148438 4.164062 C 334.296875 3.253906 340.46875 2.492188 346.652344 1.882812 C 352.839844 1.273438 359.039062 0.816406 365.25 0.511719 C 371.457031 0.207031 377.671875 0.0546875 383.886719 0.0546875 C 390.105469 0.0546875 396.320312 0.207031 402.527344 0.511719 C 408.738281 0.816406 414.9375 1.273438 421.121094 1.882812 C 427.308594 2.492188 433.476562 3.253906 439.628906 4.164062 C 445.777344 5.078125 451.902344 6.140625 458 7.351562 C 464.097656 8.566406 470.160156 9.925781 476.191406 11.4375 C 482.222656 12.949219 488.210938 14.605469 494.160156 16.410156 C 500.109375 18.214844 506.011719 20.164062 511.863281 22.257812 C 517.71875 24.355469 523.515625 26.589844 529.261719 28.96875 C 535.003906 31.347656 540.6875 33.867188 546.304688 36.527344 C 551.925781 39.183594 557.476562 41.976562 562.960938 44.910156 C 568.445312 47.839844 573.851562 50.902344 579.183594 54.097656 C 584.515625 57.296875 589.765625 60.621094 594.9375 64.074219 C 600.105469 67.527344 605.1875 71.105469 610.179688 74.808594 C 615.171875 78.515625 620.074219 82.335938 624.878906 86.28125 C 629.683594 90.226562 634.390625 94.285156 638.996094 98.460938 C 643.605469 102.636719 648.105469 106.921875 652.5 111.316406 C 656.898438 115.710938 661.183594 120.214844 665.359375 124.820312 C 669.53125 129.425781 673.59375 134.132812 677.535156 138.9375 C 681.480469 143.746094 685.304688 148.644531 689.007812 153.636719 C 692.710938 158.632812 696.289062 163.710938 699.742188 168.882812 C 703.199219 174.050781 706.523438 179.300781 709.71875 184.632812 C 712.914062 189.964844 715.976562 195.375 718.910156 200.855469 C 721.839844 206.339844 724.632812 211.890625 727.292969 217.511719 C 729.949219 223.132812 732.46875 228.8125 734.847656 234.558594 C 737.226562 240.300781 739.464844 246.097656 741.558594 251.953125 C 743.652344 257.808594 745.601562 263.707031 747.40625 269.65625 C 749.210938 275.605469 750.871094 281.597656 752.378906 287.628906 C 753.890625 293.65625 755.253906 299.722656 756.464844 305.820312 C 757.679688 311.917969 758.742188 318.039062 759.652344 324.191406 C 760.566406 330.339844 761.324219 336.507812 761.933594 342.695312 C 762.542969 348.882812 763 355.082031 763.308594 361.289062 C 763.613281 367.5 763.765625 373.710938 763.765625 379.929688 Z M 763.765625 379.929688 " fill-opacity="1" fill-rule="nonzero"/></g><path fill="#ffffff" d="M 564.941406 522.089844 L 568.914062 500.5625 C 573.820312 473.933594 555.5 448.601562 528.671875 444.929688 L 482.207031 438.566406 C 462.304688 435.839844 442.835938 445.941406 433.605469 463.785156 C 427.15625 476.257812 412.726562 482.398438 399.289062 478.335938 C 341.019531 460.734375 303.082031 422.796875 285.480469 364.527344 C 281.417969 351.089844 287.558594 336.660156 300.03125 330.210938 C 317.875 320.980469 327.976562 301.515625 325.25 281.609375 L 318.890625 235.144531 C 315.214844 208.320312 289.882812 189.996094 263.257812 194.90625 L 241.726562 198.875 C 216.429688 203.539062 198.066406 225.59375 198.066406 251.316406 L 198.066406 274.390625 C 198.066406 324.96875 210.921875 374.808594 236 418.730469 C 236.839844 420.207031 237.691406 421.671875 238.550781 423.125 C 291.011719 511.949219 387.179688 565.75 490.339844 565.75 L 512.5 565.75 C 538.222656 565.75 560.277344 547.390625 564.941406 522.09375 Z M 564.941406 522.089844 " fill-opacity="1" fill-rule="nonzero"/></svg>