<svg xmlns="http://www.w3.org/2000/svg" xmlns:xlink="http://www.w3.org/1999/xlink" width="1024" zoomAndPan="magnify" viewBox="0 0 768 767.999994" height="1024" preserveAspectRatio="xMidYMid meet" version="1.0"><defs><clipPath id="e8cfb32246"><path d="M 13.488281 108.570312 L 754.488281 108.570312 L 754.488281 343 L 13.488281 343 Z M 13.488281 108.570312 " clip-rule="nonzero"/></clipPath><clipPath id="da497f63da"><path d="M 319 561 L 449 561 L 449 691.320312 L 319 691.320312 Z M 319 561 " clip-rule="nonzero"/></clipPath></defs><rect x="-76.8" width="921.6" fill="#ffffff" y="-76.799999" height="921.599993" fill-opacity="1"/><rect x="-76.8" width="921.6" fill="#ffffff" y="-76.799999" height="921.599993" fill-opacity="1"/><path fill="#f2ca4b" d="M 149.828125 377.09375 L 149.320312 377.601562 C 143.472656 383.285156 140.3125 390.957031 140.3125 398.972656 C 140.3125 406.984375 143.324219 414.660156 148.980469 420.339844 C 160.660156 432.191406 179.839844 432.359375 191.6875 420.507812 C 243.589844 370.246094 311.835938 342.710938 383.914062 342.710938 C 455.996094 342.710938 524.21875 370.246094 575.953125 420.296875 C 581.800781 425.808594 589.304688 428.796875 596.976562 428.796875 C 605.15625 428.796875 613.167969 425.46875 618.828125 419.617188 C 624.335938 413.9375 627.324219 406.265625 627.175781 398.25 C 627.007812 390.238281 623.679688 382.5625 617.832031 376.882812 C 486.683594 250.261719 281.144531 250.261719 149.828125 377.09375 Z M 170.515625 451.839844 C 156.992188 451.839844 143.324219 446.667969 132.980469 436.152344 C 123.144531 426.148438 117.636719 412.960938 117.804688 398.78125 C 117.804688 384.769531 123.484375 371.582031 133.488281 361.578125 L 133.996094 361.066406 L 134.167969 360.898438 C 201.5625 295.816406 290.152344 259.929688 383.914062 259.929688 C 477.675781 259.929688 566.265625 295.796875 633.664062 360.898438 C 643.835938 370.734375 649.515625 383.921875 649.683594 397.953125 C 650.023438 412.136719 644.683594 425.320312 635 435.496094 C 624.996094 445.671875 611.304688 451.355469 597.125 451.355469 C 583.601562 451.355469 570.757812 446.179688 560.757812 436.664062 C 560.757812 436.664062 560.757812 436.664062 560.585938 436.492188 C 461.652344 340.71875 306.492188 340.71875 207.5625 436.492188 C 197.21875 446.667969 183.867188 451.839844 170.515625 451.839844 Z M 170.515625 451.839844 " fill-opacity="1" fill-rule="evenodd"/><path fill="#f2ca4b" d="M 254.441406 485.378906 L 253.933594 485.886719 C 248.082031 491.566406 244.925781 499.242188 244.925781 507.253906 C 244.925781 515.269531 247.933594 522.941406 253.59375 528.625 C 259.273438 534.472656 266.777344 537.632812 274.957031 537.632812 C 283.136719 537.632812 290.640625 534.621094 296.320312 528.960938 C 345.53125 481.5625 422.445312 481.5625 471.507812 528.792969 C 477.019531 534.136719 484.691406 537.144531 492.53125 537.144531 C 500.882812 537.144531 508.726562 533.816406 514.554688 527.796875 C 526.0625 515.945312 525.574219 496.761719 513.726562 485.082031 C 440.800781 415.292969 327.179688 415.292969 254.441406 485.378906 Z M 275.125 560.144531 C 274.957031 560.144531 274.789062 560.144531 274.789062 560.144531 C 260.609375 559.976562 247.425781 554.464844 237.59375 544.460938 C 227.757812 534.453125 222.417969 521.265625 222.417969 507.253906 C 222.585938 493.074219 228.097656 479.886719 238.101562 470.050781 L 238.78125 469.371094 C 277.988281 431.492188 329.53125 410.800781 383.9375 410.800781 C 438.339844 410.800781 489.882812 431.660156 529.09375 469.371094 C 549.949219 489.574219 550.457031 522.941406 530.429688 543.800781 C 520.253906 554.148438 506.734375 559.996094 492.386719 559.996094 C 478.714844 559.996094 465.679688 554.824219 455.847656 545.308594 C 415.472656 506.429688 352.25 506.429688 312.027344 545.308594 C 302.148438 554.804688 289.136719 560.144531 275.125 560.144531 Z M 275.125 560.144531 " fill-opacity="1" fill-rule="evenodd"/><g clip-path="url(#e8cfb32246)"><path fill="#f2ca4b" d="M 383.746094 191.6875 C 495.035156 191.6875 600.621094 234.234375 680.714844 311.675781 C 686.394531 317.1875 693.894531 320.027344 701.90625 320.027344 C 709.917969 320.027344 717.929688 316.699219 723.757812 310.679688 C 735.265625 298.828125 734.777344 279.644531 722.929688 267.960938 C 532.738281 84.742188 234.945312 84.742188 44.917969 267.960938 C 33.410156 279.304688 32.902344 298.339844 44.261719 310.191406 C 49.773438 316.042969 57.277344 319.539062 65.285156 319.707031 C 73.46875 319.878906 81.140625 317.039062 86.96875 311.355469 C 166.847656 234.40625 272.457031 191.6875 383.746094 191.6875 Z M 701.90625 342.539062 C 688.066406 342.539062 675.054688 337.367188 665.199219 327.847656 C 507.367188 175.664062 260.121094 175.664062 102.292969 327.847656 C 91.949219 337.683594 78.425781 342.710938 64.417969 342.371094 C 50.410156 341.863281 37.394531 336.03125 27.710938 325.6875 C 8.191406 304.996094 8.847656 271.949219 29.214844 252.085938 C 124.96875 159.636719 250.773438 108.738281 383.746094 108.738281 C 516.714844 108.738281 642.671875 159.636719 738.425781 251.9375 C 759.277344 272.136719 759.9375 305.675781 739.757812 326.363281 C 729.753906 336.710938 716.085938 342.539062 701.90625 342.539062 Z M 701.90625 342.539062 " fill-opacity="1" fill-rule="evenodd"/></g><g clip-path="url(#da497f63da)"><path fill="#f2ca4b" d="M 383.914062 584.015625 C 360.558594 584.015625 341.546875 603.03125 341.546875 626.394531 C 341.546875 649.753906 360.558594 668.769531 383.914062 668.769531 C 407.269531 668.769531 426.28125 649.753906 426.28125 626.394531 C 426.28125 603.03125 407.269531 584.015625 383.914062 584.015625 Z M 383.914062 691.15625 C 348.203125 691.15625 319.019531 662.113281 319.019531 626.246094 C 319.019531 590.523438 348.054688 561.332031 383.914062 561.332031 C 419.625 561.332031 448.808594 590.375 448.808594 626.246094 C 448.640625 662.113281 419.605469 691.15625 383.914062 691.15625 Z M 383.914062 691.15625 " fill-opacity="1" fill-rule="evenodd"/></g></svg>