<?xml version="1.0" encoding="UTF-8"?>
<svg id="Capa_2" data-name="Capa 2" xmlns="http://www.w3.org/2000/svg" viewBox="0 0 440.87 492.82">
  <defs>
    <style>
      .cls-1 {
        fill: #164b30;
      }

      .cls-2 {
        fill: #f56815;
      }
    </style>
  </defs>
  <g id="Capa_1-2" data-name="Capa 1">
    <path class="cls-2" d="M67.76,243.96c-7.1,6.78-4.92,39.67-22.49,34.47-7.32-2.17-6.64-24.16-11.99-31.27-8.13-10.8-31.32-4.24-33.27-21.71,6.98-10.26,21.44-7.55,29.72-13.61,11.43-8.36,6.59-37.08,23.3-31.59,7.26,2.39,7.45,23.72,15.63,31.57,7.51,7.21,28.29,7.46,29.69,13.62,3.07,13.53-25.61,13.77-30.58,18.52Z"/>
    <path class="cls-2" d="M135.77,62.26c14.97-4.37,13.75,18.99,23.43,27.65,6.63,5.93,23.77,8.04,25.66,13.68,5.48,16.33-20.75,12.54-27.56,19.5-6.62,6.78-3.56,29.72-17.57,29.7-13.36-.02-8.35-24.25-19.42-31.9-8.26-5.71-19.42-.82-25.85-9.56-2.74-18.42,21.11-12.75,29.48-21.59,6.15-6.49,4.84-25.45,11.84-27.49Z"/>
    <path class="cls-2" d="M389.75,435.53c-.97-.8-1.65-18.25-6.1-23.42-5.32-6.19-22.72-4.92-25.04-8.39-11.64-17.4,12.72-14.45,20.74-19.49,12.3-7.74,6.25-29.8,23.94-27.12,9.22,25.22,9.47,20,28.36,30.64,27.05,15.23-13.58,19.39-18.88,25.95-4.31,5.34-2.67,17.06-7.22,20.3-2.93,2.09-14.13,2.92-15.81,1.54Z"/>
    <path class="cls-1" d="M105.04,429.06c-4.2-2.61-11.43-1.28-16.73-4.85-16.44-11.09-53.35-32.33-37.46-56.64,1.66-2.54,42.02-24.28,51.49-32.07,31.76-26.12,61.42-64.75,84.71-96.21,20.31-27.44,43.1-35.21,76.57-29.39L356.34,15.28c22.89-30.58,64.02-11.56,60.03,24.35l-92.05,199.25c-.92,10.64,38.33,25.91,21.15,76.11-13.36,39.02-18.98,80.63-32.66,120.69-17.16,50.24-25.5,68.48-81.72,50.22-13.51-4.39-11.93-4.35-27.23-7.8-24.11-5.44-28.59-16.96-38.39-20.6-3.96-1.47-11.6,2.28-19.88.16-19.12-4.9-29.5-21.74-40.55-28.6ZM377,14.78l-97.94,207.46,26.12,12.31L403.12,27.08l-26.12-12.31ZM326.56,313.83c6.6-25.61,5.7-40.67-16.91-55.79-29.49-19.71-94.88-52.95-105.04.71l121.95,55.07ZM314.13,330.18c-3.48-5.53-112.19-55.29-118.7-54.76-21.66,1.77-66,64.77-87.32,81.57-11.24,8.85-27.15,13.57-34.9,19.45-11.6,8.79,23,32.88,34.12,31.13,15.82-2.49,42.77-44.57,51.97-42.61,24.25,5.16-26.93,51.13-33.31,56.99,33.82,41.87,57.09-24.04,68.73-21.6,20.78,4.35-13.79,42.08-13.59,45.22,24.14,16.55,27.82,19.27,42.36-4.77,6.19-10.24,13.21-40.45,26.34-36.5,19.24,5.79-16.83,50.04-13.56,60.49s31.63,12.21,41.33,2.52c10.31-10.3,43.67-125.78,36.54-137.13Z"/>
  </g>
</svg>