<?xml version="1.0" encoding="UTF-8"?>
<svg id="Capa_2" data-name="Capa 2" xmlns="http://www.w3.org/2000/svg" viewBox="0 0 343.84 354.82">
  <defs>
    <style>
      .cls-1 {
        fill: #fdefe4;
      }

      .cls-2 {
        fill: #f7f5f1;
      }

      .cls-3 {
        fill: #fd5f01;
      }

      .cls-4 {
        fill: #092e26;
      }

      .cls-5 {
        fill: #052e21;
      }

      .cls-6 {
        fill: #fdf7f3;
      }

      .cls-7 {
        fill: #fcf8f4;
      }

      .cls-8 {
        fill: #0c6e4f;
      }

      .cls-9 {
        fill: #cba064;
      }
    </style>
  </defs>
  <g id="Capa_1-2" data-name="Capa 1">
    <g>
      <path class="cls-1" d="M300.82,189.39c-.72-35.78,4.44-72.82-45.31-69.97,1.77-26.25-2.56-54.96-33.88-57.73-57.37-5.06-122.13,3.95-180.27.08,2.14-3.41,7.82-2.06,11.3-2.09,54.45-.57,110.67,2.28,164.79.04,2.53-.1,7.65,1.57,7.19-2.06h-121.5C129.09,18.58,185.41-2.78,231.57.29c76.25,5.08,126.1,77.82,99.6,150.49-4.75,13.02-15.48,36.04-30.36,38.61Z"/>
      <path class="cls-5" d="M41.35,61.77c60.88-1.87,121.6-2.21,182.15-1.02,3.7-5.31,14.04.5,18.99,3.88,15.56,10.61,18.1,33.09,17.36,50.46,23.66-.19,37.66,8.74,42.92,31.8,1.56,6.83,4.02,36.9.43,40.94-.61.68-1.46,1.15-2.39,1.55.13,6.55-1.35,20.44.34,25.39,1.02,2.99,16.11,11.23,20.04,14.97,54.81,52.18,2,145.26-71.8,121.17-7.51-2.45-13.08-8.21-21.63-9.26-54.82-6.7-123.15,5.27-179.3.14-24.89-2.28-41.04-18.56-46.07-42.46,4.86-62.44-7.1-136.35-.18-197.43,2.4-21.17,18.27-37.04,39.13-40.13Z"/>
      <path class="cls-6" d="M216.39,329.35H46.49c-3.54,0-18.45-8.12-21.6-11.34-4.07-4.14-10.31-17.22-10.31-22.62V119.41c6.98,5.26,14.47,11.28,23.63,12.4,72.14,4.98,153.56-6.8,224.59-.13,9.55.9,19.17,4.57,22.66,14.4,2.06,5.8,5.52,35.21,1.07,38.3-5.42,3.77-78.09-1.2-93.33,1.39-42.52,7.24-38.95,77.59,6.79,78.7l1.77,2.26c-5.84,22.17.59,45.07,14.63,62.63Z"/>
      <path class="cls-8" d="M239.04,86.47c4.58,9.49.93,22.34,2.07,32.94H45.46c-5.86-.16-5.1-11.68-4.15-16.25,2.34-11.3,4.95-20.22,17.14-24.04l162.73-.98c6.67.69,12.9,3.93,17.85,8.33Z"/>
      <path class="cls-7" d="M286.4,197.62v12.36c-27.15-2.26-51.14,3.16-69.01,24.66-9.85,11.86-7.38,23.82-25.73,15.47-16.59-7.55-21.42-28.53-9.97-42.93,2.15-2.71,10.65-9.57,13.08-9.57h91.64Z"/>
      <path class="cls-2" d="M239.04,86.47l-15.35-4.21-162.68.2c-17.18,5.37-16.29,21.8-15.55,36.95-30.43-1.52-35.02-37.51-4.67-44.8,56.74,4.08,125.44-7.08,180.79-.52,7.18.85,14.3,5.86,17.46,12.4Z"/>
      <path class="cls-3" d="M224.62,247.02c5.91-10.15,16.53-15.64,26.77-20.58,77.78-25.8,110.68,85.85,42.6,111.53-57.76,21.78-107.84-48.32-69.37-90.94Z"/>
      <path class="cls-9" d="M251.39,226.44c-8.86,6.21-19.47,12.5-26.77,20.58,4.41-12.69,15.79-16.94,26.77-20.58Z"/>
      <path class="cls-4" d="M278.74,248.49c2.01,2.35,16.51,5.89,12.93,12.94-4.55,8.97-10.45-.47-15.07-1.65-6.03-1.54-16.04,1.28-14.55,8.56,1.72,8.42,35.67,6.96,32.54,30.99-1.6,12.32-12.51,12.08-15.88,16.2-2.23,2.73.32,8.72-7.78,7.79-6.09-.7-3.76-5.9-5.64-7.84s-18.22-3.96-15.74-13.49c2.89-11.13,10.6-1.07,15.06.77,8.05,3.32,20.73,1.05,17.43-9.11-2.47-7.63-33.31-5.76-32.64-26.85.45-14.15,11.65-13.45,15.82-18.3,1.54-1.8,1.72-8.79,5.89-9.63,5.49-1.1,5.98,7.74,7.6,9.63Z"/>
    </g>
  </g>
</svg>