<?xml version="1.0" encoding="UTF-8"?>
<svg id="Capa_2" data-name="Capa 2" xmlns="http://www.w3.org/2000/svg" viewBox="0 0 424.12 380.73">
  <defs>
    <style>
      .cls-1 {
        fill: #fdf8f3;
      }

      .cls-2 {
        fill: #fc5f02;
      }

      .cls-3 {
        fill: #042f23;
      }

      .cls-4 {
        fill: #fdf2e8;
      }

      .cls-5 {
        fill: #fcfbf8;
      }
    </style>
  </defs>
  <g id="Capa_1-2" data-name="Capa 1">
    <g>
      <path class="cls-4" d="M364.96,192.77c7.13-11.85,5.55-22.26-1.24-33.87-41.89-39.35-81.65-83.25-123.4-122.42-.88-9.23,15.37-18.07,22.57-21.61,95.22-46.85,172.69,35.85,140.68,131.56-5.23,15.64-19.95,45.6-38.62,46.34Z"/>
      <path class="cls-3" d="M240.32,36.49c2.98,1.19,5.91,2.47,8.67,4.05s5.46,3.12,7.6,5.22c37.11,36.26,74.57,72.96,110.58,110.29,7.52,7.8,11.68,32.71-2.21,36.74-10.52,17.49-31.73,9.54-31.73,11.33v45.3c11.33-10.82,23.42-16.72,37.97-22.07,43.24-15.91,50.32-10.07,52.77,36.7,1.92,36.67-15.09,79.45-55.81,84.84-7.81,1.03-35.43-2.87-36.94-1.81-.74.52-3.77,12.32-7.04,16.75-6.57,8.9-17.59,13.79-28.26,14.79-71.59,6.72-153.79-5.04-226.51-.28-10.57,1.01-30.79-19.76-30.79-28.12v-146.1C19.07,206.76.74,200.37,0,177.98c-.73-22.37,40.59-51.76,55.68-66.69C91.01,76.36,125.69,40.83,162.12,7.02c11.24-8.01,25.29-8.9,38.06-4.04,6.16,2.34,33.27,27.06,40.14,33.5Z"/>
      <path class="cls-1" d="M317.37,343.4c-1.06,6-10.54,19.25-17,19.25h-66.85v-103.06c0-1.51-6.46-14.49-8.08-16.84-21.46-31.25-72.13-26.73-85.31,9.57-.79,2.18-4.05,13.05-4.05,14.07v96.27h-66.85c-5.62,0-17-15.58-17-21.52v-155.16c-17.39,1.78-45.33,11.53-32.75-18.02,44.27-40.02,83.93-85.64,127.9-125.84,8.98-8.21,26.26-26.22,37.42-26.22,11.28,0,30.53,20.04,39.69,28.49,42.85,39.5,83.15,83.51,125.63,123.58,7.85,9.76,2.2,23.78-10.6,22.16-3.67-.46-22.15-10.41-22.15-3.01v156.29Z"/>
      <path class="cls-2" d="M219.93,362.65h-67.98v-103.06c0-8.71,17.15-20.24,25.34-22.22,18.29-4.42,42.64,9.84,42.64,29.02v96.27Z"/>
      <path class="cls-5" d="M403.45,233.53c8.99,31.43,10.02,82.77-26.49,96.95-9.62,3.73-27.7,6.71-36.97,1.64-4.15-2.27-.27-3.71.96-5.9,6.2-10.93,19.84-25.85,29.67-33.78,5.64-4.54,17.98-5.87,17.15-14.69-1.03-10.95-13.7-3.55-18.96-.71-15.22,8.19-25.49,24.22-37.83,35.78,4.66-15.6-2.68-28.34,4.33-44.35,8.24-18.79,48.92-31.97,68.13-34.94Z"/>
    </g>
  </g>
</svg>