<?xml version="1.0" encoding="UTF-8"?>
<svg id="Capa_1" data-name="Capa 1" xmlns="http://www.w3.org/2000/svg" viewBox="0 0 1024 1024">
  <defs>
    <style>
      .cls-1 {
        fill: #f9f4ef;
      }

      .cls-2 {
        fill: #1c5442;
      }

      .cls-3 {
        fill: #f5f3ef;
      }

      .cls-4 {
        fill: #6d8063;
      }

      .cls-5 {
        fill: #6a7d5f;
      }

      .cls-6 {
        fill: #979d7e;
      }

      .cls-7 {
        fill: #c9c8b7;
      }

      .cls-8 {
        fill: #c8c7b6;
      }

      .cls-9 {
        fill: #989e80;
      }

      .cls-10 {
        fill: #f5f3ee;
      }

      .cls-11 {
        fill: #999e80;
      }

      .cls-12 {
        fill: #e5dfd6;
      }

      .cls-13 {
        fill: #c9c7b7;
      }

      .cls-14 {
        fill: #c9c7b6;
      }

      .cls-15 {
        fill: #959c7d;
      }

      .cls-16 {
        fill: #d1cebb;
      }

      .cls-17 {
        fill: #e8e1d8;
      }

      .cls-18 {
        fill: #1e5140;
      }

      .cls-19 {
        fill: #43654b;
      }

      .cls-20 {
        fill: #cbc9b8;
      }

      .cls-21 {
        fill: #e0dccd;
      }

      .cls-22 {
        fill: #cdcab6;
      }

      .cls-23 {
        fill: #cccaba;
      }

      .cls-24 {
        fill: #1e5342;
      }

      .cls-25 {
        fill: #f5f2ee;
      }

      .cls-26 {
        fill: #ec6e26;
      }

      .cls-27 {
        fill: #205140;
      }

      .cls-28 {
        fill: #faf4f0;
      }

      .cls-29 {
        fill: #c2c0ab;
      }

      .cls-30 {
        fill: #1d5040;
      }

      .cls-31 {
        fill: #dfdacb;
      }

      .cls-32 {
        fill: #c4c2ae;
      }

      .cls-33 {
        fill: #1c5241;
      }

      .cls-34 {
        fill: #989e7f;
      }

      .cls-35 {
        fill: #e5ded5;
      }

      .cls-36 {
        fill: #969d7e;
      }

      .cls-37 {
        fill: #ee6d25;
      }

      .cls-38 {
        fill: #1e5241;
      }

      .cls-39 {
        fill: #1e5442;
      }
    </style>
  </defs>
  <path class="cls-21" d="M895.1,346.96l1.79,1.11-8.72,36.8c4.2,6.84,8.35,3.78,10.67-2.54l2.24-.45c3.1-.55,1.84,1.55,1.98,3.46,1.45,19.49,5.72,38.76,5.99,58.39-7.12-2.63-13.47-6.86-21.41-7.01l-172.13.04c0-9.63,0-19.31,0-28.94l.95-2.44,14.26-4.9c5.2-2.52,10.08-7.48,9.73-13.61l-.69-2.07c7.36-4.67,10.58-21.08,4.02-26.89-68.71-60.91-137.86-121.27-207.63-180.97-13.19-11.28-33.72-11.27-47.39-.95l-208.72,177.98c-6.67,7.34-9.19,19.12-2.98,27.45l-.51,2.45c-1.04,3.85.04,7.87,3.25,12.03,1.87,3.74,1.46,5.72-1.25,5.92l.9-2h24.59l1.45,2-2-1.12c-.59-4.22-.77-12.76,2-15.84l1.8,15.71c.38.8-.95,2.25-1.31,2.25H117.96c11.88-110.39,73.93-211.27,165.29-273.16,114.64-77.66,270.41-89.91,397.04-34.28,105.2,46.22,184.35,141.03,214.81,251.58Z"/>
  <path class="cls-31" d="M373.35,696.13c.81-2.85-.28-9.8,1.05-13.42l-.1-238.53,2.53-3.45c1.1-.02,4.2,19.6,4.39,21.56.93,9.44.03,22.23.07,31.78.23,53.58-.78,107.32-1.02,160.69-.04,8.64-1.18,20.1-.87,27.82.16,3.97,4.59,8.56,2.93,13.54h67.84l1-128.69,2,.69v125.33c38.72.95,77.64,1.11,116.75.5.41-1.81.72-3.01,2.96-2.82l.58,5.01h71.26c-.22-3.44.32-7.08-.01-10.48-4.77-48.33-3.57-96.98-3.93-145.7-.12-16.15-2.02-34.61,2.23-50.56,1.64-6.15,6.92-14.81,7.75-3.32,4.64,64.15-3.54,133.88-.08,198.61.91,3.09,1.09,8.76,2.03,11.44-1.09,1.47-2.31,2.92-3.66,4.33,2.19,5.93,3.93,12.03,5.21,18.32,4.49,4.56,8.45,9.43,11.87,14.58,20.42,6.19,40.08,10.53,62.01,8.64,33.42-2.22,66.49-1.84,99.21,1.14,2.89-.85,5.2-.57,6.92.86,1.87,2.53.87,3.37-2,3.99l-26.94,34.92-2.59.55c-23.48-16.44-52.2,13.43-36.68,36.8l-.63,2.56c-7.51,3.6-13.83,9.86-20.63,14.78-19.77,14.29-40.77,27.31-63.17,37.09v-104.25c0-15.08-24.38-34.37-39.42-33.4l-250.43-.05c-19.71,1.1-36.89,14.91-40.26,34.56.35,38.34-1.29,76.92.89,115.12-1.79,2.25-5.18.87-4.99-2-18.14-8.96-36.59-20.74-53.87-28.93-1.75-1.95-1.57-2.49,1-2.99l1.89-4.37c26.45-25.35,33.45-68.72,10.53-97.96l.54-2.42,2.39-1.46c11.3,3.37,21.6,1.04,32.2-3,7.79-.32,13.61-3.33,17.46-9.03,8.94-3.53,9.95-7.49,11.96-16.02,7.05-7.17,6.56-14.07,1.83-22.37Z"/>
  <path class="cls-27" d="M740.47,386.87c.09.85.17,1.83-.34,2.51-2.77,3.72-24.11,2.93-24.6-4.51-3.2-2.32-8.41-8.52-11.96-11.49-59.83-50.07-117.56-102.69-177.1-153.12-8.34-5.48-17.69-6.59-26.68-1.75-64.09,52.34-125.06,108.7-189.31,160.85-1.79,1.45-3.72,4.56-4.98,5.5-2.05,7.13-15.36,7.44-21.56,5.57-3.1-.93-8.76-2.89-7.37-6.57-8.2-8.58-5.56-23.31,2.1-31.32l208.92-178.15c15.7-11.2,34.51-10.73,49.84,1,69.41,60.23,139.78,119.58,207.86,181.21,4.24,7.28,5.93,14.57,1.71,22.33-.77,1.42-5.51,7.25-6.54,7.93Z"/>
  <path class="cls-30" d="M572.87,691.14l-1.56,5.03-120.16-.03v-128.7c8.68-76.87,116.24-75.85,121.7,3.5,2.68,38.99-1.98,80.91.01,120.2Z"/>
  <path class="cls-11" d="M307.5,748c3.85,4.09,9.88,15.29,11.7,20.72,9.88,29.48-1.21,64.29-24.67,84.03l-1.8-3.41-.14-28.09,1.94-3.41c1.08-4.33.8-7.74-.83-10.21l-.27-14.79c-1.48,4.63-2.1,9.51-1.85,14.66l-2.03,1.36,1.92,3.91c.24,9.41.34,18.83-.83,27.89,1.27,6.37-.08,8.83-4.06,7.37-10.44-9.08-21.13-17.91-32.06-26.49l-1.89-3.7-2.34.85-13.65-8.25c-19.54-8.73,5.6,5.97,10.73,8.85l.27,2.55,3.65.14c12.04,9.93,24.1,19.81,36.18,29.64l1.07,3.14c-45.42,9.93-99.04-17.03-116.9-60.18-8.47-20.47-4.89-27.39,17.14-28.61,7.78-3.31,15.96-1.83,24.38.09,18.41,4.2,34.71,14.69,48.15,27.71,1.23-11.04,4.2-30.49,12.03-38.7.78-.82,2.09-.96,3.24-1.08l-.42-2.68c3.06-5.32,13.52-13.79,19.99-13.05,2.33.27,13.32,6.76,11.36,9.75Z"/>
  <path class="cls-12" d="M347.41,884.68c1.45.72,3.95,1.2,4.99,2,2.26,1.73,3.66,7.23,5.55,9.91,6.34,8.99,14.27,15.16,25.13,17.77,88.94,1.95,178.75,2.34,267.66-.2,18.34-5.4,27.15-16.76,30.91-34.96.67-3.22,3.73-1.88,3.72,1.7-.05,18.08-4.95,34.37-19.7,46.19-17.13,13.73-41.93,11.43-62.36,11.4-62.47-.1-126.03,2.17-188.51,1.1-20.31-.35-43.69-2.63-57.37-19.53-8.21-10.13-11.31-22.36-10.01-35.39Z"/>
  <path class="cls-17" d="M182.8,750c-9.58,2.1-6.72.77-15.42-.04s-22.49.08-31.93,0c-24.77-.23-59.25,5.45-78.82-10.95-23.18-19.44-19.63-63.08-19.48-90.27.26-44.17-.22-88.41-1.04-132.63-.24-13.14-1.02-43.03,2.26-54.69.37-1.31,3.33-6.22,4.28-6.7,2.26-1.13,2.07,6.4,2.52,7.44l-.02,225.49c2.07,20.23,18.42,34.84,38.35,36.47l254.93-.04c1.47,2.21-.52,2.89-2.72,3.16l-165.23-.15c5.26,7.38,9.37,15.03,12.32,22.93Z"/>
  <path class="cls-16" d="M307.5,748c-1.36-1.45-9.98-7.52-11.73-7.81-6.43-1.07-15.54,9.01-19.2,13.79l-1.93.67c-7.77-2.08-16.35-2.54-24.56-2.68-22,1.57-43.65,1.44-64.97-.39l-2.32-1.59c-5.64-8.05-11.04-16.41-15.96-24.93l168.22.06c1.29.57,2.91-1.01,3.37-1.07,17.8-2.3,26.77-9.3,33.17-26.22.41-1.09,1.71-1.59,1.74-1.71,5.45.46,6.12,11.77,5.08,15.47s-3.47,4.56-4.85,7.21c-1.74,3.35-1.67,8.03-3.76,11.21-2.27,3.46-6.28,3.67-8.96,6-3.77,3.29-3.12,6.49-10.2,7.76-9.29,1.66-9.75,2.21-18.02,4.92-7.94,2.6-17.2,1.39-25.14-.7Z"/>
  <path class="cls-22" d="M652.68,696.13c4.83,13.78,21.08,24.86,35.54,25.82,52.96-.56,106.06,1.17,159,.12.89.07,2,.31,2.46,1.18.61,1.17-11.18,20.43-15.43,20.76-10.5,2.98-20.35-.48-30.39-1.04-26.38-1.47-57,1.13-83.89,1.09-19.63-.04-25.9-.12-44.35-6.52-2.94-1.02-8.39-.85-10.54-2.43-1.41-1.03-2.07-4.01-3.42-5.56-2.25-2.59-7.54-6.54-8.86-9.1-2.24-4.34-2.84-14.7-5.68-19.86.56-2.71,2.53-4.82,5.55-4.46Z"/>
  <path class="cls-6" d="M721.75,576.18c-1.39-1.4-1.59-6.1-1.03-8.03,1.05-3.57,8.42-4.31,9.57-8.39,1.04-3.69.67-11.11,1.45-15.5,11.42-63.72,96.41-66.97,110.2,2.02.77,3.86.42,10.88,1.79,14.17,2.02,4.81,16.77,6.68,6.44,16.46l-123.23.56c-1.55-.13-4.11-.17-5.21-1.28Z"/>
  <path class="cls-35" d="M832.25,748c.78-1.21,1.22-2.85,2-3.99,4.02-5.87,8.14-11.5,11.76-17.66.43-.73,2.93-3.86,1.2-4.28,32.34-.64,75.42,4.67,78.85-39.37,4.8-61.59-3.62-129.39-.09-191.63l1.54-5.43c4.18,7.95,4.91,18.63,5.12,27.6.43,19.09-1.42,38.76-1.57,57.66-.27,34.81.59,69.5-.42,103.96-.78,26.5,2.05,45.79-22.05,62.21-10.24,6.98-20.84,8.43-32.91,9.99l-43.43.96Z"/>
  <path class="cls-26" d="M443.27,786.82c.22.26,4.94,1.12,6.58,1.9,11.9,5.64,19.15,16.5,20.24,29.63.68,8.14-2.27,22.93,2.99,28.93,1.38,1.57,4.61,2.57,5.48,4.49,1.4,3.06.72,8.03-2.5,9.45-3.94,1.74-33.46.46-40.42.48-4.39,0-8.48.05-12.89,0-5.34-.06-22.94,1.07-26.45-.48-2.66-1.18-3.33-4.28-2.99-6.87.65-5.07,8.4-6.82,9.72-15.3.65-4.15-.93-6.4-.81-9.68.57-15.53,1.22-28.15,15.07-37.89,3.01-2.12,11.4-4.16,11.81-4.64,1.38-1.65-2.45-12.61,7.58-11.97,8.04.51,5.72,10.97,6.57,11.97Z"/>
  <path class="cls-36" d="M805.32,782.92c17.05,13.62,13.11,42.19-8.01,49.35-11.79,4-24.45.55-31.89-9.45-19.49-26.17,14.32-60.34,39.9-39.9Z"/>
  <path class="cls-23" d="M708.26,631.5l157.43-.24c10.14,1.17,9.84,13.97,0,15.01h-155.67c-8.91-.86-10.3-11.87-1.76-14.77Z"/>
  <path class="cls-38" d="M120.69,617.56c41.66-6.59,44.19,57.29,5.64,57.51-35.59.2-38.5-52.32-5.64-57.51Z"/>
  <path class="cls-38" d="M123.73,456.97c37.38-3.45,40.99,55.16,4.68,57.59-37.51,2.51-42.64-54.08-4.68-57.59Z"/>
  <path class="cls-18" d="M119.69,537.74c44.21-7.5,45.87,60.57,2.76,56.61-32.75-3-32.26-51.61-2.76-56.61Z"/>
  <path class="cls-21" d="M276.58,753.99c-9.32,12.16-13.56,29.73-12.98,44.89-20.14-20.93-44.9-34.58-74.81-32.92l4.98-1.49c-3.51-4.93-7.5-9.52-10.97-14.47,8.12-1.78,10.22.58,17.42,1.03,23.33,1.45,48.5-3.73,71.85.98,1.71.35,3.49.14,4.51,1.98Z"/>
  <path class="cls-8" d="M186.51,557.67l117.53-.24c10.14,1.17,9.84,13.97,0,15.01h-115.77c-8.91-.86-10.3-11.87-1.76-14.77Z"/>
  <path class="cls-13" d="M187.52,637.5l115.52-.25c11.59,1.39,10.3,13.96,2.02,15.04l-116.79-.03c-9.42-.98-10.29-12.83-.75-14.76Z"/>
  <path class="cls-15" d="M524.7,406.03c3.78-.85,23.55-.81,27.67-.15,5.02.8,7.99,5.63,8.54,10.42.58,5.13.63,24.73-1.23,28.7-1.71,3.65-5.42,5.28-9.25,5.72-5.29.6-24.34.68-28.35-1.58-2.77-1.56-4.72-4.72-5.09-7.88-.65-5.48-.65-20.47.11-25.87.54-3.85,3.62-8.46,7.6-9.36Z"/>
  <path class="cls-6" d="M525.72,349.19c5.03-.91,23.26-.23,28.67.79,3.59.68,6.13,6.14,6.53,9.43.63,5.22.61,25.45-1.6,29.37-1.57,2.78-4.73,4.72-7.88,5.09-5.12.61-21,.7-25.9-.08-4.27-.68-8.06-5.19-8.56-9.4-.63-5.33-.66-21.63.26-26.72.79-4.34,4.16-7.7,8.48-8.48Z"/>
  <path class="cls-6" d="M469.83,406.03c3.82-.86,23.53-.81,27.67-.15,5.02.8,7.99,5.63,8.54,10.42.58,5.13.63,24.73-1.23,28.7-1.71,3.65-5.42,5.28-9.25,5.72-5.23.6-22.53.63-26.83-1.1-3.53-1.42-5.17-3.58-5.61-7.36-.66-5.7-.78-23.45.08-28.9.49-3.13,3.55-6.64,6.64-7.33Z"/>
  <path class="cls-34" d="M471.85,349.2c4.78-.8,19.88-.91,24.64-.18,5.33.82,8.94,5.17,9.56,10.39.59,4.91.63,23.17-.5,27.48s-4.79,6.48-8.98,6.98-24.97.52-28.2-.78c-2.97-1.2-4.9-4.6-5.27-7.7-.66-5.58-.74-22.5.09-27.89.75-4.88,3.95-7.52,8.66-8.3Z"/>
  <path class="cls-8" d="M185.5,477.86l118.53-.23c9.41,1.09,10.14,12.14,1.03,14.04h-117.82c-7.85-1.69-8.58-9.82-1.74-13.81Z"/>
  <path class="cls-14" d="M517.71,799.09l103.57-.23c10.12.9,10.1,13.84,0,15.01-31.96-2.37-68.34,3.11-99.77-.04-10.64-1.06-13.82-10.01-3.79-14.74Z"/>
  <path class="cls-20" d="M740.18,664.41l91.6-.23c7.19-.47,10.69,10.79,4.45,13.47-1.33.57-8.41,1.35-10.47,1.5-9.85.72-19.7-1.15-28.91-1.07-16.67.15-34.11,2.57-50.88,1.06-10.8-.97-15.29-7.34-5.8-14.74Z"/>
  <path class="cls-24" d="M743.18,598.57l87.52-.16c10.24,2.66,8.4,14.53-1.94,14.91-26.25-2.15-57.11,2.89-82.8,0-10.07-1.13-11.81-10.77-2.78-14.75Z"/>
  <path class="cls-7" d="M523.78,842.08c17.66-1.63,52.05-2.03,69.52-.28,13.24,1.33,11.84,13.84,2.03,14.97-23.66,2.74-52.55-2.04-76.78-.08-5.05-1.11-7.89-4.92-6.33-10.21,1.23-4.15,7.78-4.05,11.56-4.4Z"/>
  <path class="cls-2" d="M901.09,381.88c-2.68,9-9.84,13.11-14.81,3.25l8.82-38.17c3.46-5.77,12.31-4.36,12.96,2.58.31,3.27-5.59,27.69-6.97,32.33Z"/>
  <path class="cls-39" d="M948.68,444.94c3.75-.84,29.75-.84,33.5,0,7.55,1.7,7.93,12.47.15,13.69-4.77.75-30.35.83-34.64-.15-6.83-1.57-6.29-11.91.99-13.54Z"/>
  <path class="cls-33" d="M954.71,383.11c6.85-1.83,12,5.93,7.25,11.26l-27.99,20.88c-6.92,2.84-12.66-4.99-7.96-10.95l28.7-21.19Z"/>
  <path class="cls-19" d="M289.55,808.86c5.09-7.71,6.83,1.84,4.99,8.98.15,11.07.77,24.05,0,34.92-.07,1.06-.49,2.07-1,2.99-.85-.4-3.14.2-4.99-1-12.45-8.11-26.86-23.28-40.9-32.92-1.49-2.75,2.56-5.59,4.99-3.99,12.94,8.53,22.29,18.54,33.91,27.44,1,.77,1.26,1.94,2.99,1.49-1.99-5.94-.08-11,.05-16.41.16-7.15-.3-14.36-.04-21.49Z"/>
  <path class="cls-29" d="M740.47,386.87c1.62,1.02,2.34.99,1.84,3.23-1.16,5.18-6.03,10.16-10.83,12.23l-15.96,5.49v-22.95c6.65,4.83,17.75,6.75,24.94,2Z"/>
  <path class="cls-37" d="M424.36,863.86c3.23-2.06,8.27,3.37,11.49,3.57s12.07-8.22,13.35-1.18c1.9,10.42-15.99,17.27-23.42,7.39-1.57-2.09-3.98-8.16-1.43-9.78Z"/>
  <path class="cls-9" d="M789.66,491.3c-.73-.57-1.89-3.66-2.8-3.66-.57,0-6.87,6.79-9.46,5.97-3.85-10.41,3.67-19.29,14.52-15.03,8.08,3.17,8.22,20.84-2.26,12.73Z"/>
  <path class="cls-32" d="M276.58,383.87c7.19,7.51,21.03,6.93,28.93,1v16.96h-26.94c2.59-5.06-10.03-15.48-2-17.96Z"/>
  <path class="cls-4" d="M252.63,817.84l-4.99,3.99c-4.05-2.78-17.74-9.98-19.92-12.5-1.08-1.25-1.3-1.71-1.03-3.45,3.35-3.27,22.29,9.57,25.93,11.97Z"/>
  <path class="cls-5" d="M289.55,808.86c.11-3.16.18-17.03,2.61-17.84,1.01-.34,2.28-.06,3.37-.12-.61,8.76,1.29,18.47-.99,26.94-.04-3.31.04-6.66,0-9.97l-4.98.99Z"/>
  <path class="cls-28" d="M839.23,565.43l-103.75-1.48c1.65-1.62,3.59-1.95,4.78-4.2,1.99-3.79,2.04-15.6,4.16-21.78,14.38-41.91,69.94-41.59,84.61.26,3.56,10.15.38,21.05,10.2,27.2Z"/>
  <path class="cls-1" d="M462.13,850.76h-51.88c1.49-3.74,3.37-6.3,3.88-10.59,1.17-9.84-2.22-22.58,2.55-31.37,7.17-13.2,25.47-15.97,35.87-4.84,9.25,9.89,4.29,23.05,5.69,35.21.48,4.21,2.42,7.75,3.88,11.58Z"/>
  <path class="cls-3" d="M111.24,644.52c4.05-4.04,7.37,4.98,11.18,5.72,1.73-.43,15.75-23.57,18.35-13.26.6,2.38-15.91,21.72-17.53,22.13-2.27.58-13.02-10.34-13.08-12.2-.02-.58.62-1.94,1.07-2.39Z"/>
  <path class="cls-25" d="M135.57,474.8c3.76-1.29,6.74,1.02,4.83,4.84-4.86,3.5-11.74,16.25-16.48,18.47-4.42,2.07-14.79-9.9-13.51-12.46,3.42-6.86,9.76,4.26,11.89,3.9,2.86-1.74,11.37-14.1,13.27-14.75Z"/>
  <path class="cls-10" d="M111.24,564.71c3.68-3.68,7.52,3.92,10.24,5.7l1.45.02c1.74-3.19,12.13-16.65,15.28-15.85,6.88,1.75-3.82,12.5-6.31,15.33-1.9,2.16-7.46,9.17-9.63,9.36-1.07.09-11.34-9.74-11.83-10.86-.53-1.21-.07-2.82.8-3.69Z"/>
</svg>