<?xml version="1.0" encoding="UTF-8"?>
<svg id="Capa_2" data-name="Capa 2" xmlns="http://www.w3.org/2000/svg" viewBox="0 0 441.78 403.25">
  <defs>
    <style>
      .cls-1 {
        fill: #023023;
      }

      .cls-2 {
        fill: #fdf2e7;
      }

      .cls-3 {
        fill: #fdeee2;
      }

      .cls-4 {
        fill: #f6a25d;
      }

      .cls-5 {
        fill: #fb6502;
      }

      .cls-6 {
        fill: #f9f6f0;
      }
    </style>
  </defs>
  <g id="Capa_1-2" data-name="Capa 1">
    <g>
      <path class="cls-3" d="M389.54,214.32c-21.9-53.59-76.77-100.5-134.97-107.95,14.37-18.99,7.93-52.8-14.85-62.4-1.27-.53-13.85-3.78-14.6-3.8l6.13-2.46-13.48-1.2C267.64-25.87,331.59-.09,376.07,52.4c40.07,47.29,66.08,113.09,13.47,161.92Z"/>
      <path class="cls-1" d="M225.12,40.16c31.41-10.51,50.8,34.85,37.95,61.39,44.72,11.6,83.25,36.79,110.67,74.65,4.93,6.8,16.46,23.31,17.84,30.47.52,2.7-.8,5.35-2.04,7.65,10.29,25.2,14.04,56.28,14.71,83.41,26.07-4.85,45.17,11.98,34.53,38.29-6.01,14.86-29.24,11.4-31.82,13.47-1.13.91-3.94,21.07-7.54,28.02-8.14,15.73-23.59,21.87-40.48,23.32-89.1,7.66-189.31-5.68-279.57-.36-25.71-2.88-44.28-25.31-40.75-51.25-51.61,5.79-51.38-58.79,0-51.49-4.98-90.54,60.42-179.77,152.14-191.36-19.79-28.08-.7-67.1,34.36-66.2Z"/>
      <path class="cls-2" d="M53.33,297.71c-4.81-74.97,43.14-150.45,115.93-172.34,113.16-34.03,214.06,44,220.32,158.93.18,3.4.19,13.4-3.72,13.4H53.33Z"/>
      <path class="cls-6" d="M20.2,312.43h402.46c5.15,0,8.41,16.2-1.22,20.86l-394,1.33c-12.1-1.12-17.21-14.13-7.24-22.2Z"/>
      <path class="cls-5" d="M200.57,69.6c6.33.82,15.11-5.17,12.27-12.26,40.5-15.82,55.27,57.17-1.17,46.54-14.64-2.76-15.58-22.73-11.1-34.28Z"/>
      <path class="cls-4" d="M200.57,69.6c2.76-7.13,5.19-9.5,12.27-12.26,13.08,5.66,1.46,11.29-6.16,17.17-5.2,4.02-5.79-1-6.11-4.9Z"/>
    </g>
  </g>
</svg>