<?xml version="1.0" encoding="UTF-8"?>
<svg id="Capa_1" data-name="Capa 1" xmlns="http://www.w3.org/2000/svg" viewBox="0 0 512 512">
  <defs>
    <style>
      .cls-1 {
        fill: #164b30;
      }

      .cls-2 {
        fill: #f56815;
      }

      .cls-3 {
        fill: #fcfcfc;
      }
    </style>
  </defs>
  <path class="cls-3" d="M213.29,348.04c-3.04-3.57-2.56-3.62-3.83-7.66,2.91,3.31,2.83,6.26,3.83,7.66Z"/>
  <path class="cls-3" d="M217.12,351.87c-.54-.91-2.63-2.15-3.83-3.83.99,1.17,2.74,3.13,3.83,3.83Z"/>
  <path class="cls-1" d="M209.46,340.39c1.27,4.04.8,4.09,3.83,7.66,1.2,1.68,3.29,2.92,3.83,3.83,1.65,2.76,1.25,9.19,4.08,13,10.47,14.05,62.68.49,81.71,9.07,43.64-66.81,174.37-59.18,186,26.12,1.49,10.95,2.36,67.8-.21,75.71-2.61,8.02-11.47,6.47-18.62,6.28v-78.5c0-3.12-12-26.67-15.28-30.68-22.37-27.33-85.93-28.74-113.14-9.55-32.35,22.82-9.15,26.65.95,48.88,6.55,14.43,16.78,63.9,1.05,71.97-21.43,11-13.9-46.56-16.18-56.84-11.22-50.5-123.76-53.54-133.15,3.22-1.8,10.85,5.93,58.21-13.16,55.09-18.95-3.09-8.42-59.89-1.74-73.8,4.62-9.62,24.93-28.45,25.58-31.81,1.32-6.87-15.12-30.07-21.06-35.24-25.54-22.24-85.98-22.74-112.57-2.61-8.26,6.26-26.73,28.72-26.73,38.39v95.73c0,.99-8.95,10.44-12.88,9.25-2.04-.36-10.11-8.57-10.11-9.25v-91.9c0-2.58,7.38-20.81,9.39-25.08,30.31-64.57,133.45-70.1,178.42-18.95Z"/>
  <path class="cls-1" d="M217.12,351.87c-1.09-.7-2.84-2.66-3.83-3.83-1-1.4-.93-4.35-3.83-7.66-36.88-116.91,141.98-100.85,102.46-6.76-16.17,38.48-63.69,38.31-94.79,18.25ZM296.31,311.24c0-19.75-16.03-35.77-35.8-35.77s-35.8,16.01-35.8,35.77,16.03,35.77,35.8,35.77,35.8-16.01,35.8-35.77Z"/>
  <path class="cls-1" d="M108.78,172.8c88.28-16.37,114.9,93.56,43.2,123.56-88.16,36.89-128.18-107.8-43.2-123.56ZM172.23,235.18c0-24.95-20.24-45.17-45.21-45.17s-45.21,20.22-45.21,45.17,20.24,45.17,45.21,45.17,45.21-20.22,45.21-45.17Z"/>
  <path class="cls-1" d="M454.43,263.07c0,33.91-27.52,61.41-61.47,61.41s-61.47-27.49-61.47-61.41,27.52-61.41,61.47-61.41,61.47,27.49,61.47,61.41ZM434.25,262.49c0-22.91-18.59-41.48-41.52-41.48s-41.52,18.57-41.52,41.48,18.59,41.48,41.52,41.48,41.52-18.57,41.52-41.48Z"/>
  <path class="cls-2" d="M218.48,81.37c19.99-19.97,35.65-3.58,51.04-2.17,5.75.53,11.86-5.67,18.73-6.65,33-4.73,51.84,22.84,42.15,53.65-2.12,6.73-19.07,26.52-25.02,32.41-7.74,7.66-29.78,27.03-39.52,24.27-3.99-1.13-32.65-26.72-37.31-31.94-16.54-18.52-30.96-48.69-10.06-69.56ZM277.86,102.35c-12.07,7.07-25.3-25.98-45.23-8.75-21.2,18.33,23.4,65.76,36.44,67.03,17.46,1.69,74.01-65.55,29.61-72.31-16.59-2.53-17.72,12.23-20.81,14.04Z"/>
</svg>