<?xml version="1.0" encoding="UTF-8"?>
<svg id="Capa_2" data-name="Capa 2" xmlns="http://www.w3.org/2000/svg" viewBox="0 0 308.53 335.8">
  <defs>
    <style>
      .cls-1 {
        fill: #096145;
      }

      .cls-2 {
        fill: #0e382a;
      }

      .cls-3 {
        fill: #0b3a2b;
      }

      .cls-4 {
        fill: #fe650a;
      }

      .cls-5 {
        fill: #0f392c;
      }

      .cls-6 {
        fill: #fe6409;
      }

      .cls-7 {
        fill: #fe690a;
      }

      .cls-8 {
        fill: #052f22;
      }

      .cls-9 {
        fill: #fafbfa;
      }
    </style>
  </defs>
  <g id="Capa_1-2" data-name="Capa 1">
    <g>
      <path class="cls-8" d="M275.51,202.49c-1.69,5.51-13.39,3.12-13.5-3.92V34.1c-1.39-12.5-14.21-20.01-26.11-20.35-62.03,4.14-130.56-5.24-191.8,0-13.82,1.18-27.42,6.5-28.09,22.23,5.94,83.46-7.59,177.22,0,259.47.98,10.65,7.5,18.73,18.44,20.27h150.99c8.95,1.73,9.11,13.5,1.99,13.5H32.55c-.86,0-11.54-5.01-13.24-6.11-10.22-6.61-15.53-15.64-16.74-27.77-8.09-81.06,6.07-174.99-.1-257.4C3.66,20.77,16.83,4.1,34.48,2.21c65.28-6.99,142.57,5.27,209.13-.04,13.44,1.06,31.89,18.8,31.89,31.97v168.34Z"/>
      <path class="cls-2" d="M135.16,85.42h92.92c3.28,0,7.47,12.17-7.63,13.66-16.62,1.64-65.62,2.19-81.29-.24-9.43-1.46-12.19-7.31-4-13.42Z"/>
      <path class="cls-3" d="M228.08,166.69c8.38,2.53,2.17,12.59-9.59,13.64-17.78,1.58-62.4,2.15-79.35-.27-12.78-1.83-7.8-13.36-3.98-13.36h92.92Z"/>
      <path class="cls-4" d="M47.69,92.59c-3.97-4.6-1.44-11.12,4.23-11.1,3.44.02,14.27,10.68,17.41,13.58,5.68-4.22,28.12-30.88,32.93-30.51,3.87.3,6.99,9.1,2.98,12.26-7.17,3.62-28.34,32.35-32.47,33.48-2.54.7-3.99.41-6.31-.68-1.15-.54-17.48-15.53-18.78-17.04Z"/>
      <path class="cls-7" d="M100.63,225.02c7-1.9,7.77,6.28,5.46,11.3-1.03,2.24-32.82,34.02-35.2,34.65-3.9,1.03-25.2-20.08-25.59-22.32-.62-3.58,4.56-6.77,8.11-6.25,5.87.85,14.56,13.26,15.93,13.26,2.29,0,26.4-29.31,31.3-30.65Z"/>
      <path class="cls-6" d="M102.27,145.83c4,.31,5.74,7.13,3.86,11.15-1.02,2.18-31.03,33.95-33.34,34.59-5.13,1.43-25.71-16.56-26.91-20.97s3.24-8.7,7.58-7.57c4.33,1.13,11.26,14.21,17.53,13.03,3.67-.69,24.51-30.76,31.28-30.23Z"/>
      <path class="cls-5" d="M170,244.09c4.81,1.47,3.83,11.34-2.33,13.15-4.72,1.39-30.3,1.04-34.12-1.39-5.21-3.32-1.49-11.77,1.6-11.77,7.44,0,29.85-1.52,34.85,0Z"/>
      <ellipse class="cls-1" cx="248.47" cy="275.78" rx="60.06" ry="60.03"/>
      <path class="cls-9" d="M272.99,252.04c4.92-1.27,9.42,3.48,6.91,8.88-1.24,2.67-34.86,39.18-37.37,40.31-7.7,3.47-28.5-18.13-26.77-24.81,4.02-15.5,18.58,10.97,23.66,10.09,7.23-5.1,26.9-32.75,33.57-34.47Z"/>
    </g>
  </g>
</svg>